<svg xmlns="http://www.w3.org/2000/svg" width="48" height="48" viewBox="0 0 48 48"><defs><style>.a,.b{fill:#fff;}.a{opacity:0.5;}</style></defs><g transform="translate(-659 -600)"><circle class="a" cx="24" cy="24" r="24" transform="translate(659 600)"/><path class="b" d="M9.209,17.221l-.794.794a.855.855,0,0,1-1.213,0L.249,11.065a.855.855,0,0,1,0-1.213L7.2,2.9a.855.855,0,0,1,1.213,0l.794.794A.859.859,0,0,1,9.194,4.92L4.884,9.027h10.28a.856.856,0,0,1,.858.858V11.03a.856.856,0,0,1-.858.858H4.884l4.31,4.106A.853.853,0,0,1,9.209,17.221Z" transform="translate(674.993 613.043)"/></g></svg>