<svg xmlns="http://www.w3.org/2000/svg" xmlns:xlink="http://www.w3.org/1999/xlink" width="28.022" height="28.022" viewBox="0 0 28.022 28.022"><defs><style>.a{fill:url(#a);}</style><linearGradient id="a" x1="0.5" x2="0.5" y2="1" gradientUnits="objectBoundingBox"><stop offset="0" stop-color="#003a8a"/><stop offset="1" stop-color="#00a29d"/></linearGradient></defs><g transform="translate(-1 -0.856)"><path class="a" d="M10.411,7.706a2.706,2.706,0,1,0-2.706,2.706A2.708,2.708,0,0,0,10.411,7.706Zm-4.509,0a1.8,1.8,0,1,1,1.8,1.8A1.806,1.806,0,0,1,5.9,7.706Z" transform="translate(-2.196 -2.275)"/><path class="a" d="M0,0H.9V.9H0Z" transform="translate(25.292 3.948) rotate(-45)"/><path class="a" d="M0,0H.9V.9H0Z" transform="translate(24.017 5.223) rotate(-45)"/><path class="a" d="M0,0H.856V.9H0Z" transform="translate(22.774 6.466) rotate(-45)"/><path class="a" d="M27.6,19.86H25.1a11.285,11.285,0,0,0,1.149-4.96,11.167,11.167,0,0,0-1.966-6.347q.511-.356,1-.749l2.774,2.774.967-.967L27.67,5.551l.144-.144a2.364,2.364,0,0,0-3.343-3.344l-.145.145L20.268.856l-.966.967L22.075,4.6q-.394.484-.749,1A11.253,11.253,0,0,0,9.969,4.8,4.507,4.507,0,0,0,1,5.43v.124a4.5,4.5,0,0,0,.758,2.5l2.42,3.63a11.242,11.242,0,0,0,.282,7.273h-.3a1.349,1.349,0,0,0-.451,2.623v.985H1v1.51a4.808,4.808,0,0,0,4.8,4.8h4.991a4.827,4.827,0,0,0,4.32-2.709,11.184,11.184,0,0,0,3.923-.751v2.107a1.354,1.354,0,0,0,1.353,1.353h7.215a1.354,1.354,0,0,0,1.353-1.353V21.213A1.355,1.355,0,0,0,27.6,19.86Zm-4.96.9H25.35v.9H22.644Zm-2.255-.9H19.043a26.259,26.259,0,0,0,.44-4.509h5.852a10.355,10.355,0,0,1-1.252,4.509Zm-4.974,5.32.014-.811H13.454l-1.438-2.876a1.351,1.351,0,0,0,.625-.731h5.281C17.312,23.19,16.363,24.8,15.416,25.18Zm-2.775-5.32A1.352,1.352,0,0,0,11.683,19a26.137,26.137,0,0,1-.3-3.647h7.2a25.149,25.149,0,0,1-.457,4.509ZM4.625,14.449a10.375,10.375,0,0,1,.266-1.962,1.291,1.291,0,0,0,1.7-.417l1.42-2.13h2.909a26.259,26.259,0,0,0-.44,4.509Zm7.211-4.509h6.292a25.5,25.5,0,0,1,.45,4.509h-7.2a25.152,25.152,0,0,1,.456-4.509Zm3.143-5.411c.8,0,1.626.907,2.287,2.486l-.343.343.588.294c.153.435.293.9.415,1.386H12.038C12.743,6.237,13.9,4.528,14.979,4.528Zm5,3.347-1.53-.765.279-.279,1.585.4C20.193,7.44,20.083,7.657,19.975,7.875Zm-.379.819-.011.024a1.175,1.175,0,0,0-.082.319h-.652c-.067-.283-.139-.556-.216-.824Zm5.736,5.755H19.48a26.549,26.549,0,0,0-.436-4.509h.714a1.188,1.188,0,0,0,1.4.354l.025-.011,1.337,2.673,1.525-1.525L23.462,9.1l.072-.046a10.262,10.262,0,0,1,1.8,5.4ZM22.651,9.569l.4,1.585-.279.279L22,9.9C22.221,9.8,22.438,9.686,22.651,9.569Zm5.275-.4L25.97,7.216c.227-.2.45-.413.666-.63l.321-.321Zm-1.783-6.9a1.462,1.462,0,0,1,1.034,2.5L26,5.948a16.519,16.519,0,0,1-5.193,3.516.3.3,0,0,1-.391-.391A16.525,16.525,0,0,1,23.93,3.88L25.108,2.7h0a1.455,1.455,0,0,1,1.034-.428Zm-5.435-.321,2.907.969-.321.321c-.217.217-.426.44-.63.666Zm.075,4.464-2.334-.584-.5.5a7.106,7.106,0,0,0-.977-1.6,10.241,10.241,0,0,1,3.853,1.617c-.016.025-.032.048-.047.073ZM10,5.8a10.333,10.333,0,0,1,3.01-1.087,10.706,10.706,0,0,0-1.9,4.319h-2.5l.655-.982A4.487,4.487,0,0,0,10,5.8ZM1.9,5.554V5.43a3.607,3.607,0,1,1,7.215,0v.124a3.6,3.6,0,0,1-.606,2L5.835,11.569a.406.406,0,0,1-.652,0L2.507,7.555A3.6,3.6,0,0,1,1.9,5.554Zm2.717,9.8h5.859a27.234,27.234,0,0,0,.287,3.607H5.435a10.271,10.271,0,0,1-.816-3.607ZM4.156,19.86h7.215a.451.451,0,1,1,0,.9H4.156a.451.451,0,1,1,0-.9Zm.451,1.8h6.485l1.353,2.706H6.239l-.9-1.8h-.73Zm6.187,6.313H5.8a3.905,3.905,0,0,1-3.9-3.9v-.608H4.78l.9,1.8h8.826A3.919,3.919,0,0,1,10.794,27.976Zm6.152-2.895a10.709,10.709,0,0,0,1.9-4.32h.27a1.338,1.338,0,0,0-.083.451v3.23A10.208,10.208,0,0,1,16.947,25.082Zm11.109,2.444a.451.451,0,0,1-.451.451H20.39a.451.451,0,0,1-.451-.451V21.213a.451.451,0,0,1,.451-.451h1.353v1.8h4.509v-1.8H27.6a.451.451,0,0,1,.451.451Z" transform="translate(0 0)"/><path class="a" d="M57,57h.9v.9H57Z" transform="translate(-30.748 -30.827)"/><path class="a" d="M53,57h.9v.9H53Z" transform="translate(-28.552 -30.827)"/><path class="a" d="M17,49h.9v.9H17Z" transform="translate(-8.785 -26.435)"/><path class="a" d="M21,49h.9v.9H21Z" transform="translate(-10.981 -26.435)"/><path class="a" d="M13,49h.9v.9H13Z" transform="translate(-6.589 -26.435)"/><path class="a" d="M27,35h.9v.9H27Z" transform="translate(-14.276 -18.748)"/><path class="a" d="M35,35h.9v.9H35Z" transform="translate(-18.669 -18.748)"/><path class="a" d="M31,35h.9v.9H31Z" transform="translate(-16.472 -18.748)"/><path class="a" d="M35,27h.9v.9H35Z" transform="translate(-18.669 -14.355)"/><path class="a" d="M31,27h.9v.9H31Z" transform="translate(-16.472 -14.355)"/><path class="a" d="M27,27h.9v.9H27Z" transform="translate(-14.276 -14.355)"/></g></svg>