<svg xmlns="http://www.w3.org/2000/svg" viewBox="0 0 100 40"><defs><style>.cls-1{fill:#333;}.cls-2{fill:#00a59e;}.cls-3{fill:#00998e;}.cls-4{fill:#ef2600;}</style></defs><title>logo_black copy</title><g id="black"><path class="cls-1" d="M52.17,13.57v5.59a55.63,55.63,0,0,1,5.15-6.89A2.78,2.78,0,0,1,60,11.17h2.45v.13a94.17,94.17,0,0,0-6.73,8.22C57.42,22,59,24.66,61.31,26.6a3.41,3.41,0,0,0,1.41.73,2,2,0,0,1-2.3,1.8A3.57,3.57,0,0,1,57.92,28a61.67,61.67,0,0,1-5.75-8v9H51a2.21,2.21,0,0,1-2.35-2.43V11.17H49.8A2.19,2.19,0,0,1,52.17,13.57Z"/><path class="cls-1" d="M63.73,33.62a2.29,2.29,0,0,1-2.45-2.17v-.68l2-.13c1.28-.08,1.73-.6,2.48-2.58a44.67,44.67,0,0,1-5-13.1h1.85a2,2,0,0,1,2,1.64,30.33,30.33,0,0,0,2.81,8.12A39.5,39.5,0,0,0,70.2,15h1.52c1.12,0,1.64.49,1.64,1.64,0,1.49-2.45,7.91-3.1,9.42C67.65,32.18,66.26,33.62,63.73,33.62Z"/><path class="cls-1" d="M75,12.74a2.46,2.46,0,0,1,1.64-1h.81V15h4.88v1.43a1.86,1.86,0,0,1-2.09,1.67H77.48v5.51c0,1.83.81,2.53,2.22,2.53a5,5,0,0,0,2.53-.5h.13v1.26c0,1.43-1,2.35-3.08,2.35C75.73,29.21,74,27.27,74,24V15.53A3.49,3.49,0,0,1,75,12.74Z"/><path class="cls-1" d="M88.15,23.52H85.86c.26,1.77,1.88,2.89,3.94,2.89a6.33,6.33,0,0,0,4.3-1.33h.13v1.1c0,1.8-1.22,3.18-5.08,3.18a6.94,6.94,0,0,1-6.92-7.07c0-4.7,2.87-7.65,6.89-7.65a5.45,5.45,0,0,1,5.64,5.46C94.76,22.68,92.8,23.52,88.15,23.52Zm.66-5.95a3,3,0,0,0-3,3l0,.47H87.4c3.31,0,4.07-.37,4.07-1.36C91.47,18.27,90.42,17.57,88.81,17.57Z"/><path class="cls-2" d="M23.93,3,6.42,9.32a1.8,1.8,0,0,0-.34.17,1.77,1.77,0,0,0-.56,2.45l9.87,15.8L9.65,11.9Z"/><path class="cls-3" d="M7.42,9.32a2.11,2.11,0,0,0-.34.16,1.79,1.79,0,0,0-.57,2.46l7.5,12,1.38,3.81L5.51,11.94a1.79,1.79,0,0,1,.57-2.46,2.11,2.11,0,0,1,.34-.16L23.93,3Z"/><path class="cls-4" d="M10.9,35.92h0l.1,0a6.22,6.22,0,0,0,.66-.33l.46-.29c.16-.1.31-.23.46-.34s.76-.61,1.33-1.14l.41-.43c.33-.34,1.28-1.41,2-2.31.2-.29.6-.88,1.06-1.53A59.34,59.34,0,0,0,22,20.64c.85-2.18.81-2,1.83-4.73l1.23-3.61C26,9.44,27.33,4.52,28.13,1.24c-.6,3.48-1.36,7.44-2.26,11.28-.19.71-.72,2.69-1,3.72-.17.73-1.05,3.44-1.51,4.91a60.49,60.49,0,0,1-4.17,9.5l-1,1.7a30.07,30.07,0,0,1-2.41,3.21A18.63,18.63,0,0,1,14.3,37c-.18.15-.35.31-.54.46l-.59.43A7.91,7.91,0,0,1,12,38.6l-.28.1A1.45,1.45,0,0,1,10.9,35.92Z"/><path class="cls-2" d="M21.74,29.78l17.51-6.35a2.11,2.11,0,0,0,.34-.16,1.79,1.79,0,0,0,.57-2.46L30.28,5,36,20.85Z"/><path class="cls-3" d="M38.25,23.43a2.11,2.11,0,0,0,.34-.16,1.79,1.79,0,0,0,.57-2.46l-7.5-12L30.28,5l9.88,15.8a1.79,1.79,0,0,1-.57,2.46,2.11,2.11,0,0,1-.34.16L21.74,29.78Z"/></g></svg>