<svg id="white" xmlns="http://www.w3.org/2000/svg" viewBox="0 0 100 40"><defs><style>.cls-1{fill:#00a59e;}.cls-2{fill:#00998e;}.cls-3{fill:#ef2600;}.cls-4{fill:#f2f2f2;}</style></defs><title>logo_white</title><path class="cls-1" d="M23.93,3,6.42,9.32a1.8,1.8,0,0,0-.34.17,1.77,1.77,0,0,0-.56,2.45l9.87,15.8L9.65,11.9Z"/><path class="cls-2" d="M7.42,9.32a2.11,2.11,0,0,0-.34.16,1.79,1.79,0,0,0-.57,2.46l7.5,12,1.38,3.81L5.51,11.94a1.79,1.79,0,0,1,.57-2.46,2.11,2.11,0,0,1,.34-.16L23.93,3Z"/><path class="cls-3" d="M10.9,35.92h0l.1,0a6.22,6.22,0,0,0,.66-.33l.46-.29c.16-.1.31-.23.46-.34s.76-.61,1.33-1.14l.41-.43c.33-.34,1.28-1.41,2-2.31.2-.29.6-.88,1.06-1.53A59.34,59.34,0,0,0,22,20.64c.85-2.18.81-2,1.83-4.73l1.23-3.61C26,9.44,27.33,4.52,28.13,1.24c-.6,3.48-1.36,7.44-2.26,11.28-.19.71-.72,2.69-1,3.72-.17.73-1.05,3.44-1.51,4.91a60.49,60.49,0,0,1-4.17,9.5l-1,1.7a30.07,30.07,0,0,1-2.41,3.21A18.63,18.63,0,0,1,14.3,37c-.18.15-.35.31-.54.46l-.59.43A7.91,7.91,0,0,1,12,38.6l-.28.1A1.45,1.45,0,0,1,10.9,35.92Z"/><g id="kyte"><path class="cls-4" d="M62.72,27.33a3.41,3.41,0,0,1-1.41-.73C59,24.66,57.42,22,55.75,19.52a94.17,94.17,0,0,1,6.73-8.22v-.13H60a2.78,2.78,0,0,0-2.71,1.1,55.63,55.63,0,0,0-5.15,6.89V13.57a2.19,2.19,0,0,0-2.37-2.4H48.65V26.62A2.21,2.21,0,0,0,51,29.05h1.17V20a61.67,61.67,0,0,0,5.75,8,3.57,3.57,0,0,0,2.5,1.15A2,2,0,0,0,62.72,27.33Z"/><path class="cls-4" d="M71.72,15H70.2a39.5,39.5,0,0,1-2.74,9.76,30.33,30.33,0,0,1-2.81-8.12,2,2,0,0,0-2-1.64H60.76a44.67,44.67,0,0,0,5,13.1c-.75,2-1.2,2.5-2.48,2.58l-2,.13v.68a2.29,2.29,0,0,0,2.45,2.17c2.53,0,3.92-1.44,6.53-7.6.65-1.51,3.1-7.93,3.1-9.42C73.36,15.45,72.84,15,71.72,15Z"/><path class="cls-4" d="M79.7,26.1c-1.41,0-2.22-.7-2.22-2.53V18.06h2.79a1.86,1.86,0,0,0,2.09-1.67V15H77.48V11.77h-.81a2.46,2.46,0,0,0-1.64,1,3.49,3.49,0,0,0-1,2.79V24c0,3.28,1.72,5.22,5.27,5.22,2,0,3.08-.92,3.08-2.35V25.6h-.13A5,5,0,0,1,79.7,26.1Z"/><path class="cls-4" d="M89.8,26.41c-2.06,0-3.68-1.12-3.94-2.89h2.29c4.65,0,6.61-.84,6.61-3.42a5.45,5.45,0,0,0-5.64-5.46c-4,0-6.89,2.95-6.89,7.65a6.94,6.94,0,0,0,6.92,7.07c3.86,0,5.08-1.38,5.08-3.18v-1.1H94.1A6.33,6.33,0,0,1,89.8,26.41Zm-3.94-5.84a3,3,0,0,1,3-3c1.61,0,2.66.7,2.66,2.11,0,1-.76,1.36-4.07,1.36H85.83Z"/></g><path class="cls-1" d="M21.74,29.78l17.51-6.35a2.11,2.11,0,0,0,.34-.16,1.79,1.79,0,0,0,.57-2.46L30.28,5,36,20.85Z"/><path class="cls-2" d="M38.25,23.43a2.11,2.11,0,0,0,.34-.16,1.79,1.79,0,0,0,.57-2.46l-7.5-12L30.28,5l9.88,15.8a1.79,1.79,0,0,1-.57,2.46,2.11,2.11,0,0,1-.34.16L21.74,29.78Z"/></svg>