<svg xmlns="http://www.w3.org/2000/svg" xmlns:xlink="http://www.w3.org/1999/xlink" width="31.556" height="18.743" viewBox="0 0 31.556 18.743"><defs><style>.a{fill:url(#a);}</style><linearGradient id="a" x1="0.5" x2="0.5" y2="1" gradientUnits="objectBoundingBox"><stop offset="0" stop-color="#003a8a"/><stop offset="1" stop-color="#00a29d"/></linearGradient></defs><g transform="translate(0 -103.95)"><g transform="translate(11.501 103.95)"><g transform="translate(0 0)"><path class="a" d="M190.924,103.95a4.575,4.575,0,1,0,4.324,4.569A4.456,4.456,0,0,0,190.924,103.95Zm0,7.288a2.732,2.732,0,1,1,2.475-2.719A2.609,2.609,0,0,1,190.924,111.238Z" transform="translate(-186.6 -103.95)"/></g></g><g transform="translate(21.284 104.564)"><g transform="translate(0 0)"><path class="a" d="M349.086,113.92h-.03a3.96,3.96,0,0,0,.036,7.908h.03a3.634,3.634,0,0,0,2.665-1.2,4.046,4.046,0,0,0,1.053-2.782A3.863,3.863,0,0,0,349.086,113.92Zm1.338,5.455a1.8,1.8,0,0,1-1.318.6h-.014a2.117,2.117,0,0,1-.02-4.21h.014a2.016,2.016,0,0,1,1.905,2.089A2.2,2.2,0,0,1,350.424,119.375Z" transform="translate(-345.338 -113.92)"/></g></g><g transform="translate(0 112.935)"><path class="a" d="M25.991,249.73H24.08a5.543,5.543,0,0,0-3.8,1.508,6.464,6.464,0,0,0-3.3-.9h-2.3a6.468,6.468,0,0,0-3.359.936,5.547,5.547,0,0,0-3.84-1.541H5.566A5.572,5.572,0,0,0,0,255.3v2.356H8.169v1.836H23.48v-1.836h8.076V255.3A5.572,5.572,0,0,0,25.991,249.73ZM8.252,255.8h-6.4V255.3a3.721,3.721,0,0,1,3.716-3.716H7.476a3.7,3.7,0,0,1,2.4.878A6.48,6.48,0,0,0,8.252,255.8Zm13.379,1.836H10.018v-.8a4.661,4.661,0,0,1,4.658-4.658h2.3a4.625,4.625,0,0,1,2.173.539,4.682,4.682,0,0,1,1.471,1.222,4.637,4.637,0,0,1,1.014,2.9v.8Zm8.076-1.836H23.4a6.494,6.494,0,0,0-1.66-3.39,3.7,3.7,0,0,1,2.343-.834h1.911a3.721,3.721,0,0,1,3.716,3.716v.507Z" transform="translate(0 -249.73)"/></g><g transform="translate(2.77 104.564)"><g transform="translate(0 0)"><path class="a" d="M48.686,113.92h-.03a3.96,3.96,0,0,0,.036,7.908h.03a3.634,3.634,0,0,0,2.665-1.2,4.046,4.046,0,0,0,1.053-2.782A3.863,3.863,0,0,0,48.686,113.92Zm1.338,5.455a1.8,1.8,0,0,1-1.318.6h-.014a2.117,2.117,0,0,1-.02-4.21h.014a2.016,2.016,0,0,1,1.905,2.089A2.2,2.2,0,0,1,50.024,119.375Z" transform="translate(-44.938 -113.92)"/></g></g></g></svg>