<svg xmlns="http://www.w3.org/2000/svg" width="28" height="28.001" viewBox="0 0 28 28.001"><defs><style>.a{fill:#86d5a2;}</style></defs><path class="a" d="M254.717,256.023a14,14,0,1,1,14-14A14.016,14.016,0,0,1,254.717,256.023Zm0-26.193a12.193,12.193,0,1,0,12.192,12.193A12.206,12.206,0,0,0,254.717,229.83Z" transform="translate(-240.717 -228.022)"/><path class="a" d="M276.988,283.792a1.627,1.627,0,0,1-1.15-.477l-5.012-5.012a1.627,1.627,0,1,1,2.3-2.3l3.861,3.861,7.87-7.871a1.627,1.627,0,0,1,2.3,2.3l-9.021,9.021A1.627,1.627,0,0,1,276.988,283.792Z" transform="translate(-264.992 -263.654)"/><g transform="translate(3.131 2.914)"><g transform="translate(10.434 13.306)"><path class="a" d="M316.207,342.246a.452.452,0,1,1,0-.9,10.1,10.1,0,0,0,8.4-4.482.452.452,0,1,1,.751.5A11,11,0,0,1,316.207,342.246Z" transform="translate(-315.755 -333.242)"/><path class="a" d="M370.279,320.189a.452.452,0,0,1-.418-.623,10.049,10.049,0,0,0,.472-1.47.452.452,0,0,1,.879.209,10.95,10.95,0,0,1-.515,1.6A.452.452,0,0,1,370.279,320.189Z" transform="translate(-360.052 -317.748)"/></g><path class="a" d="M266.77,249.727a.452.452,0,0,1-.375-.7,11,11,0,0,1,9.147-4.883.452.452,0,1,1,0,.9,10.1,10.1,0,0,0-8.4,4.482A.451.451,0,0,1,266.77,249.727Z" transform="translate(-264.821 -244.141)"/><path class="a" d="M258.49,282.894a.453.453,0,0,1-.44-.557,10.947,10.947,0,0,1,.515-1.6.452.452,0,1,1,.836.342,10.055,10.055,0,0,0-.472,1.47A.452.452,0,0,1,258.49,282.894Z" transform="translate(-258.038 -273.889)"/></g></svg>